<svg width="231" height="45" viewBox="0 0 231 45" fill="none" xmlns="http://www.w3.org/2000/svg">
<path d="M34.7618 1.06117H42.6958V43.8822H32.6202L8.06031 11.0402H7.93441V43.8822H0V1.06117H10.5165L34.6359 32.874H34.7618V1.06117ZM145.734 31.9068H145.61L135.786 1.06117H127.977L117.964 31.9068H117.837L109.462 1.06117H100.773L113.933 43.8822H121.238L131.566 11.2828H131.693L142.02 43.8822H149.576L162.548 1.06117H154.489L145.734 31.9068ZM222.938 1.06117L214.186 31.9068H214.059L204.235 1.06117H196.427L186.414 31.9068H186.288L177.912 1.06117H169.222L182.383 43.8822H189.69L200.018 11.2824H200.142L210.471 43.8822H218.027L231 1.06117H222.938ZM96.6741 22.4996C96.6741 34.9085 86.6555 45 74.3405 45C62.0256 45 52.0066 34.9085 52.0066 22.4996C52.0066 10.0928 62.0256 0 74.3405 0C86.6551 0 96.6741 10.0928 96.6741 22.4996ZM88.8774 22.4996C88.8774 14.4253 82.3556 7.85427 74.3405 7.85427C66.325 7.85427 59.8037 14.4253 59.8037 22.4996C59.8037 30.5743 66.3246 37.1449 74.3405 37.1449C82.3556 37.1449 88.8774 30.5743 88.8774 22.4996Z" fill="#1E1E1E"/>
</svg>
